<?xml version="1.0" encoding="UTF-8" standalone="no"?><!DOCTYPE svg PUBLIC "-//W3C//DTD SVG 1.1//EN" "http://www.w3.org/Graphics/SVG/1.1/DTD/svg11.dtd"><svg width="100%" height="100%" viewBox="0 0 170 31" version="1.1" xmlns="http://www.w3.org/2000/svg" xmlns:xlink="http://www.w3.org/1999/xlink" xml:space="preserve" xmlns:serif="http://www.serif.com/" style="fill-rule:evenodd;clip-rule:evenodd;stroke-linejoin:round;stroke-miterlimit:1.41421;"><g><path d="M18.942,1.89l4.479,-0.205c0.849,0 1.322,0.171 1.417,0.513c0.096,0.343 0.144,0.596 0.144,0.76c0,0.959 -0.335,2.171 -1.006,3.637c-0.672,1.465 -1.151,2.198 -1.439,2.198c-0.287,0 -0.431,-0.109 -0.431,-0.329l0.329,-2.465c0,-0.822 -0.391,-1.486 -1.171,-1.993c-0.781,-0.507 -1.651,-0.76 -2.61,-0.76c-0.958,0 -1.664,0.069 -2.116,0.205c-0.452,0.137 -0.828,0.425 -1.13,0.863c-1.287,1.836 -2.985,5.232 -5.095,10.19l9.122,0l0.041,0.042c0,0.191 -0.191,0.568 -0.575,1.13c-0.383,0.561 -0.698,0.842 -0.945,0.842l-8.505,0c-2.658,6.465 -3.986,10.847 -3.986,13.148c0,0.411 0.055,0.713 0.164,0.904l-5.3,0c0.739,-3.122 2.383,-7.807 4.93,-14.052l-2.259,0c-0.22,0 -0.329,-0.069 -0.329,-0.206c0,-0.274 0.26,-0.643 0.78,-1.109c0.521,-0.466 0.946,-0.699 1.274,-0.699l1.397,0c2.329,-5.505 4.123,-9.19 5.383,-11.053c-6.191,0.877 -9.903,2.37 -11.135,4.479c-0.028,0.082 -0.096,0.123 -0.206,0.123c-0.109,0 -0.164,-0.075 -0.164,-0.226c0,-0.15 0.014,-0.253 0.041,-0.308c1.041,-2.849 2.945,-4.588 5.711,-5.218c1.261,-0.274 2.945,-0.411 5.054,-0.411l8.136,0Z" style="fill:#282b3b;fill-rule:nonzero;"/><path d="M33.118,19.887c0.164,0 0.246,0.267 0.246,0.801c0,0.535 -0.219,1.171 -0.657,1.911c-0.438,0.74 -0.87,1.438 -1.294,2.096c-0.425,0.657 -0.993,1.424 -1.706,2.301c-0.712,0.876 -1.41,1.575 -2.095,2.095c-1.726,1.26 -3.458,1.89 -5.198,1.89c-1.739,0 -3.143,-0.445 -4.211,-1.335c-1.069,-0.89 -1.603,-2.253 -1.603,-4.089c0,-2.794 1.027,-5.382 3.082,-7.765c2.054,-2.384 4.451,-3.575 7.19,-3.575c1.233,0 2.219,0.322 2.959,0.965c0.739,0.644 1.109,1.418 1.109,2.322c0,1.534 -0.726,2.767 -2.178,3.698c-1.451,0.931 -3.163,1.397 -5.136,1.397c-1.15,0 -1.999,-0.151 -2.547,-0.452c-0.521,1.397 -0.781,2.63 -0.781,3.698c0,2.301 0.972,3.452 2.917,3.452c1.151,0 2.336,-0.446 3.555,-1.336c1.219,-0.89 2.259,-1.89 3.122,-2.999c0.863,-1.11 1.843,-2.705 2.938,-4.787c0.11,-0.192 0.206,-0.288 0.288,-0.288Zm-4.356,-3.246c0,-0.794 -0.383,-1.191 -1.15,-1.191c-1.068,0 -2.26,0.657 -3.575,1.972c-1.315,1.315 -1.972,2.383 -1.972,3.205c0,0.548 0.52,0.822 1.561,0.822c1.041,0 2.13,-0.507 3.267,-1.521c1.137,-1.013 1.76,-2.109 1.869,-3.287Z" style="fill:#282b3b;fill-rule:nonzero;"/><path d="M46.965,5.506c-0.986,2 -2.493,4.266 -4.52,6.8c-2.027,2.534 -3.849,4.568 -5.465,6.102l-0.657,1.89c-0.329,0.959 -0.644,2.123 -0.945,3.493c-0.302,1.369 -0.439,2.342 -0.411,2.917c0,0.822 0.301,1.233 0.904,1.233c0.602,0 1.322,-0.343 2.157,-1.028c0.836,-0.684 1.445,-1.28 1.828,-1.787c0.384,-0.507 0.829,-1.171 1.336,-1.993c0.507,-0.822 0.945,-1.534 1.315,-2.136c0.37,-0.603 0.582,-0.904 0.637,-0.904c0.164,0 0.246,0.253 0.246,0.76c0,0.507 -0.137,0.993 -0.411,1.458c-1.506,2.548 -2.725,4.342 -3.657,5.383c-1.89,2.082 -3.835,3.123 -5.834,3.123c-1.534,0 -2.301,-1.041 -2.301,-3.123c0,-2.054 0.917,-5.643 2.753,-10.765c0.137,-0.439 0.452,-1.356 0.945,-2.753c0.493,-1.397 0.917,-2.486 1.273,-3.267c0.357,-0.781 0.836,-1.815 1.439,-3.102c0.602,-1.288 1.184,-2.315 1.746,-3.082c0.561,-0.767 1.185,-1.547 1.869,-2.342c1.343,-1.589 2.794,-2.383 4.356,-2.383c1.561,0 2.342,0.712 2.342,2.137c0,1.095 -0.315,2.218 -0.945,3.369Zm-0.863,-4.479l-0.288,0c-1.671,0 -4.341,5.013 -8.012,15.039c3.753,-4.41 6.314,-8.026 7.684,-10.848c0.767,-1.725 1.15,-2.855 1.15,-3.39c0,-0.534 -0.178,-0.801 -0.534,-0.801Z" style="fill:#282b3b;fill-rule:nonzero;"/><path d="M53.252,8.711l-0.165,0c-0.548,0 -1.075,0.233 -1.582,0.698c-0.506,0.466 -0.869,0.945 -1.089,1.439c-0.712,-0.274 -1.068,-0.767 -1.068,-1.48c0,-0.712 0.329,-1.431 0.986,-2.157c0.658,-0.726 1.288,-1.089 1.89,-1.089c0.603,0 1.055,0.137 1.356,0.411c0.302,0.274 0.452,0.623 0.452,1.048c0,0.425 -0.26,0.801 -0.78,1.13Zm-5.589,5.424l2.055,0.041l0.411,0c-0.438,0.328 -1.021,1.219 -1.747,2.671c-0.725,1.451 -1.266,2.547 -1.623,3.287c-0.356,0.739 -0.76,1.739 -1.212,2.999c-0.452,1.26 -0.678,2.287 -0.678,3.082c0,0.794 0.261,1.191 0.781,1.191c0.356,0 0.856,-0.239 1.5,-0.719c0.644,-0.479 1.171,-0.986 1.582,-1.52c0.411,-0.534 0.869,-1.212 1.376,-2.034c0.507,-0.822 0.945,-1.534 1.315,-2.136c0.37,-0.603 0.582,-0.904 0.637,-0.904c0.164,0 0.247,0.253 0.247,0.76c0,0.507 -0.137,0.993 -0.411,1.458c-1.014,1.699 -1.938,3.116 -2.774,4.253c-0.835,1.137 -1.787,2.13 -2.856,2.979c-1.068,0.849 -2.04,1.274 -2.917,1.274c-1.534,0 -2.301,-1.068 -2.301,-3.205c0,-3.315 1.137,-6.985 3.41,-11.012c0.959,-1.644 2.028,-2.465 3.205,-2.465Z" style="fill:#282b3b;fill-rule:nonzero;"/><path d="M69.81,22.311c-1.013,1.699 -1.938,3.116 -2.773,4.253c-0.836,1.137 -1.787,2.13 -2.856,2.979c-1.068,0.849 -2.04,1.274 -2.917,1.274c-1.616,0 -2.424,-0.89 -2.424,-2.671c0,-1.78 1.027,-5.355 3.081,-10.724c0.11,-0.247 0.165,-0.507 0.165,-0.781c0,-0.575 -0.363,-0.863 -1.089,-0.863c-0.726,0 -1.438,0.226 -2.137,0.678c-0.698,0.452 -1.335,1.096 -1.91,1.931c-0.576,0.836 -1.096,1.685 -1.562,2.548c-0.465,0.863 -0.897,1.856 -1.294,2.979c-0.397,1.123 -0.712,2.061 -0.945,2.815c-0.233,0.753 -0.466,1.561 -0.699,2.424c-0.233,0.863 -0.363,1.335 -0.39,1.417l-3.986,0c0,-0.575 1.206,-3.876 3.616,-9.902c0.986,-2.822 1.479,-4.794 1.479,-5.917c0,-0.274 -0.041,-0.479 -0.123,-0.616l1.726,0c0.959,0 1.575,0.096 1.849,0.287c0.274,0.192 0.411,0.452 0.411,0.781c0,0.329 -0.151,1 -0.452,2.013c2.301,-2.191 4.615,-3.287 6.944,-3.287c1.561,0 2.342,0.712 2.342,2.137c0,0.466 -0.069,0.931 -0.206,1.397c-0.136,0.466 -0.479,1.397 -1.027,2.794c-1.205,3.068 -1.808,5.122 -1.808,6.163c0,0.658 0.247,0.986 0.74,0.986c0.356,0 0.856,-0.246 1.5,-0.739c0.643,-0.493 1.178,-1.007 1.602,-1.541c0.425,-0.534 0.89,-1.205 1.397,-2.013c0.507,-0.808 0.938,-1.514 1.295,-2.116c0.356,-0.603 0.561,-0.904 0.616,-0.904c0.164,0 0.246,0.253 0.246,0.76c0,0.507 -0.137,0.993 -0.411,1.458Z" style="fill:#282b3b;fill-rule:nonzero;"/><path d="M84.767,19.887c0.164,0 0.246,0.267 0.246,0.801c0,0.535 -0.219,1.171 -0.657,1.911c-0.438,0.74 -0.87,1.438 -1.294,2.096c-0.425,0.657 -0.993,1.424 -1.705,2.301c-0.713,0.876 -1.411,1.575 -2.096,2.095c-1.726,1.26 -3.458,1.89 -5.198,1.89c-1.739,0 -3.143,-0.445 -4.211,-1.335c-1.069,-0.89 -1.603,-2.253 -1.603,-4.089c0,-2.794 1.027,-5.382 3.082,-7.765c2.054,-2.384 4.451,-3.575 7.19,-3.575c1.233,0 2.219,0.322 2.959,0.965c0.739,0.644 1.109,1.418 1.109,2.322c0,1.534 -0.726,2.767 -2.177,3.698c-1.452,0.931 -3.164,1.397 -5.137,1.397c-1.15,0 -1.999,-0.151 -2.547,-0.452c-0.521,1.397 -0.781,2.63 -0.781,3.698c0,2.301 0.973,3.452 2.917,3.452c1.151,0 2.336,-0.446 3.555,-1.336c1.219,-0.89 2.26,-1.89 3.122,-2.999c0.863,-1.11 1.843,-2.705 2.938,-4.787c0.11,-0.192 0.206,-0.288 0.288,-0.288Zm-4.355,-3.246c0,-0.794 -0.384,-1.191 -1.151,-1.191c-1.068,0 -2.26,0.657 -3.575,1.972c-1.315,1.315 -1.972,2.383 -1.972,3.205c0,0.548 0.52,0.822 1.561,0.822c1.041,0 2.13,-0.507 3.267,-1.521c1.137,-1.013 1.76,-2.109 1.87,-3.287Z" style="fill:#282b3b;fill-rule:nonzero;"/><path d="M113.242,1.89l4.478,-0.205c0.85,0 1.322,0.171 1.418,0.513c0.096,0.343 0.144,0.596 0.144,0.76c0,0.959 -0.336,2.171 -1.007,3.637c-0.671,1.465 -1.15,2.198 -1.438,2.198c-0.288,0 -0.431,-0.109 -0.431,-0.329l0.328,-2.465c0,-0.822 -0.39,-1.486 -1.171,-1.993c-0.78,-0.507 -1.65,-0.76 -2.609,-0.76c-0.959,0 -1.664,0.069 -2.116,0.205c-0.452,0.137 -0.829,0.425 -1.13,0.863c-1.287,1.836 -2.986,5.232 -5.095,10.19l9.122,0l0.041,0.042c0,0.191 -0.192,0.568 -0.575,1.13c-0.384,0.561 -0.699,0.842 -0.945,0.842l-8.506,0c-2.657,6.465 -3.986,10.847 -3.986,13.148c0,0.411 0.055,0.713 0.165,0.904l-5.301,0c0.74,-3.122 2.384,-7.807 4.931,-14.052l-2.26,0c-0.219,0 -0.329,-0.069 -0.329,-0.206c0,-0.274 0.261,-0.643 0.781,-1.109c0.521,-0.466 0.945,-0.699 1.274,-0.699l1.397,0c2.328,-5.505 4.123,-9.19 5.383,-11.053c-6.191,0.877 -9.903,2.37 -11.136,4.479c-0.027,0.082 -0.095,0.123 -0.205,0.123c-0.11,0 -0.164,-0.075 -0.164,-0.226c0,-0.15 0.013,-0.253 0.041,-0.308c1.041,-2.849 2.944,-4.588 5.711,-5.218c1.26,-0.274 2.945,-0.411 5.054,-0.411l8.136,0Z" style="fill:#282b3b;fill-rule:nonzero;"/><path d="M130.746,20.462c0.082,-0.164 0.164,-0.246 0.246,-0.246c0.165,0 0.247,0.205 0.247,0.616c0,1.315 -0.528,2.404 -1.582,3.267c-1.055,0.863 -2.041,1.294 -2.959,1.294c-0.917,0 -1.705,-0.26 -2.362,-0.781c-0.986,1.945 -2.157,3.479 -3.513,4.602c-1.356,1.124 -3.103,1.685 -5.239,1.685c-1.37,0 -2.486,-0.418 -3.349,-1.253c-0.863,-0.836 -1.294,-2.109 -1.294,-3.821c0,-1.713 0.39,-3.479 1.171,-5.301c0.78,-1.822 1.958,-3.39 3.533,-4.705c1.576,-1.315 3.336,-1.972 5.28,-1.972c3.26,0 4.89,1.726 4.89,5.177c0,1.315 -0.288,2.698 -0.863,4.15c0.411,0.576 1,0.863 1.767,0.863c1.424,0 2.767,-1.191 4.027,-3.575Zm-6.862,-2.547c-0.11,-1.452 -0.767,-2.178 -1.972,-2.178c-1.891,0 -3.74,1.835 -5.547,5.506c-0.987,2.027 -1.48,3.862 -1.48,5.506c0,1.644 0.713,2.506 2.137,2.589c1.178,0 2.267,-0.624 3.267,-1.87c0.999,-1.246 1.842,-2.623 2.527,-4.129c-0.932,-0.795 -1.398,-1.795 -1.398,-3c0,-0.739 0.199,-1.328 0.596,-1.767c0.397,-0.438 0.938,-0.657 1.623,-0.657l0.247,0Z" style="fill:#282b3b;fill-rule:nonzero;"/><path d="M145.004,5.506c-0.986,2 -2.493,4.266 -4.52,6.8c-2.027,2.534 -3.849,4.568 -5.465,6.102l-0.657,1.89c-0.329,0.959 -0.644,2.123 -0.945,3.493c-0.302,1.369 -0.439,2.342 -0.411,2.917c0,0.822 0.301,1.233 0.904,1.233c0.602,0 1.321,-0.343 2.157,-1.028c0.835,-0.684 1.445,-1.28 1.828,-1.787c0.384,-0.507 0.829,-1.171 1.336,-1.993c0.506,-0.822 0.945,-1.534 1.314,-2.136c0.37,-0.603 0.583,-0.904 0.637,-0.904c0.165,0 0.247,0.253 0.247,0.76c0,0.507 -0.137,0.993 -0.411,1.458c-1.507,2.548 -2.726,4.342 -3.657,5.383c-1.89,2.082 -3.835,3.123 -5.835,3.123c-1.534,0 -2.301,-1.041 -2.301,-3.123c0,-2.054 0.918,-5.643 2.753,-10.765c0.137,-0.439 0.452,-1.356 0.945,-2.753c0.494,-1.397 0.918,-2.486 1.274,-3.267c0.356,-0.781 0.836,-1.815 1.438,-3.102c0.603,-1.288 1.185,-2.315 1.747,-3.082c0.561,-0.767 1.184,-1.547 1.869,-2.342c1.342,-1.589 2.794,-2.383 4.356,-2.383c1.561,0 2.342,0.712 2.342,2.137c0,1.095 -0.315,2.218 -0.945,3.369Zm-0.863,-4.479l-0.288,0c-1.671,0 -4.342,5.013 -8.012,15.039c3.753,-4.41 6.314,-8.026 7.683,-10.848c0.767,-1.725 1.151,-2.855 1.151,-3.39c0,-0.534 -0.178,-0.801 -0.534,-0.801Z" style="fill:#282b3b;fill-rule:nonzero;"/><path d="M151.29,8.711l-0.164,0c-0.548,0 -1.075,0.233 -1.582,0.698c-0.507,0.466 -0.87,0.945 -1.089,1.439c-0.712,-0.274 -1.068,-0.767 -1.068,-1.48c0,-0.712 0.329,-1.431 0.986,-2.157c0.657,-0.726 1.287,-1.089 1.89,-1.089c0.603,0 1.055,0.137 1.356,0.411c0.301,0.274 0.452,0.623 0.452,1.048c0,0.425 -0.26,0.801 -0.781,1.13Zm-5.588,5.424l2.055,0.041l0.411,0c-0.439,0.328 -1.021,1.219 -1.747,2.671c-0.726,1.451 -1.267,2.547 -1.623,3.287c-0.356,0.739 -0.76,1.739 -1.212,2.999c-0.452,1.26 -0.678,2.287 -0.678,3.082c0,0.794 0.26,1.191 0.781,1.191c0.356,0 0.856,-0.239 1.5,-0.719c0.643,-0.479 1.171,-0.986 1.582,-1.52c0.41,-0.534 0.869,-1.212 1.376,-2.034c0.507,-0.822 0.945,-1.534 1.315,-2.136c0.37,-0.603 0.582,-0.904 0.637,-0.904c0.164,0 0.246,0.253 0.246,0.76c0,0.507 -0.137,0.993 -0.411,1.458c-1.013,1.699 -1.938,3.116 -2.773,4.253c-0.836,1.137 -1.788,2.13 -2.856,2.979c-1.068,0.849 -2.041,1.274 -2.917,1.274c-1.534,0 -2.301,-1.068 -2.301,-3.205c0,-3.315 1.137,-6.985 3.41,-11.012c0.959,-1.644 2.027,-2.465 3.205,-2.465Z" style="fill:#282b3b;fill-rule:nonzero;"/><path d="M165.261,14.135l2.054,0.041l0.411,0c-0.904,0.739 -2.013,2.609 -3.328,5.608c-1.315,3 -1.973,5.185 -1.973,6.554c0,0.712 0.247,1.068 0.74,1.068c1.589,0 3.616,-2.342 6.081,-7.026c0.11,-0.192 0.206,-0.287 0.288,-0.287c0.164,0 0.246,0.253 0.246,0.76c0,0.507 -0.137,0.993 -0.41,1.458c-3.37,5.671 -6.191,8.506 -8.465,8.506c-1.479,0 -2.219,-1.137 -2.219,-3.411c0,-1.698 0.288,-3.369 0.863,-5.012c-3.123,5.533 -6.012,8.3 -8.67,8.3c-1.835,0 -2.753,-1.26 -2.753,-3.781c0,-1.917 0.418,-3.862 1.254,-5.834c0.835,-1.973 2.034,-3.65 3.595,-5.034c1.561,-1.383 3.273,-2.075 5.136,-2.075c0.877,0 1.698,0.199 2.465,0.596c0.767,0.397 1.274,1.034 1.521,1.911c0.301,-0.63 0.767,-1.178 1.397,-1.644c0.63,-0.465 1.219,-0.698 1.767,-0.698Zm-3.411,2.712c-0.274,-0.877 -0.917,-1.315 -1.931,-1.315c-1.808,0 -3.561,1.253 -5.259,3.759c-1.699,2.507 -2.548,4.746 -2.548,6.718c0,0.85 0.329,1.274 0.986,1.274c0.712,0 1.548,-0.445 2.507,-1.335c0.958,-0.89 1.821,-1.938 2.588,-3.144c1.699,-2.684 2.918,-4.67 3.657,-5.957Z" style="fill:#282b3b;fill-rule:nonzero;"/></g></svg>